# xmcd CD database file
#
# Track frame offsets:
#	150
#	24340
#	43807
#	64792
#	87477
#	104510
#	124685
#	144672
#	165832
#	186590
#	208060
#	232357
#	250875
#	271975
#
# Disc length: 3882 seconds
#
# Revision: 1
# Processed by: cddbd v1.5PL3 Copyright (c) Steve Scherf et al.
# Submitted via: CDex 1.51
#
DISCID=d10f280e
DTITLE=Michael Bolton - All That Matters
DYEAR=1997
DGENRE=Rock
TTITLE0=Safe Place From The Storm
TTITLE1=The Best Of Love
TTITLE2=Let's Make A Long Story Longer
TTITLE3=A Heart Can Only Be So Strong
TTITLE4=Fallin'
TTITLE5=Forever's Just A Matter Of Time
TTITLE6=Whenever I Remember Loving You
TTITLE7=Show Her The Way
TTITLE8=Why Me
TTITLE9=Can't Get Close Enough To You
TTITLE10=Let There Be Love
TTITLE11=Pleasure Or Pain
TTITLE12=Go The Distance
TTITLE13=When There Are No Words
EXTD=YEAR: 1997
EXTT0=
EXTT1=
EXTT2=
EXTT3=
EXTT4=
EXTT5=
EXTT6=
EXTT7=
EXTT8=
EXTT9=
EXTT10=
EXTT11=
EXTT12=
EXTT13=
PLAYORDER=
